<svg width="24" height="25" viewBox="0 0 24 25" fill="none" xmlns="http://www.w3.org/2000/svg">
<path d="M22.6 25C23 25 23.3333 24.8611 23.6 24.5833C23.8667 24.3056 24 23.9583 24 23.5417V17.9167C24 17.5926 23.9 17.3088 23.7 17.0653C23.5 16.8227 23.2444 16.6667 22.9333 16.5972L18.3333 15.625C18.0222 15.5787 17.7053 15.6074 17.3827 15.7111C17.0609 15.8157 16.8 15.9722 16.6 16.1806L13.4667 19.4444C11.7778 18.3796 10.2333 17.1181 8.83333 15.6597C7.43333 14.2014 6.26667 12.6389 5.33333 10.9722L8.53333 7.56944C8.73333 7.36111 8.86133 7.12361 8.91733 6.85694C8.97244 6.5912 8.97778 6.2963 8.93333 5.97222L8.06667 1.11111C8.02222 0.787037 7.87778 0.520833 7.63333 0.3125C7.38889 0.104167 7.11111 0 6.8 0H1.4C0.999998 0 0.666664 0.138889 0.399998 0.416667C0.133331 0.694444 0 1.04167 0 1.45833C0 4.44444 0.639111 7.35509 1.91733 10.1903C3.19467 13.0264 4.88355 15.538 6.984 17.725C9.08356 19.913 11.4942 21.6722 14.216 23.0028C16.9387 24.3343 19.7333 25 22.6 25Z" fill="#0B2128"/>
</svg>
