<svg width="29" height="30" viewBox="0 0 29 30" fill="none" xmlns="http://www.w3.org/2000/svg">
<path d="M14.5 0C6.52499 0 0 6.76205 0 15.0904C0 22.6205 5.30699 28.8705 12.238 30V19.4578H8.55499V15.0904H12.238V11.762C12.238 7.98193 14.3985 5.90361 17.719 5.90361C19.2995 5.90361 20.9525 6.18976 20.9525 6.18976V9.90964H19.1255C17.3275 9.90964 16.762 11.0693 16.762 12.259V15.0904H20.793L20.1405 19.4578H16.762V30C20.1788 29.4395 23.2902 27.6288 25.5344 24.8947C27.7786 22.1606 29.0077 18.6832 29 15.0904C29 6.76205 22.475 0 14.5 0Z" fill="#0A232C"/>
</svg>
