<svg width="23" height="23" viewBox="0 0 23 23" fill="none" xmlns="http://www.w3.org/2000/svg">
<path d="M12.625 8.125H10.375V5.875H12.625M12.625 17.125H10.375V10.375H12.625M11.5 0.25C10.0226 0.25 8.55972 0.54099 7.19481 1.10636C5.8299 1.67172 4.58971 2.50039 3.54505 3.54505C1.43526 5.65483 0.25 8.51631 0.25 11.5C0.25 14.4837 1.43526 17.3452 3.54505 19.455C4.58971 20.4996 5.8299 21.3283 7.19481 21.8936C8.55972 22.459 10.0226 22.75 11.5 22.75C14.4837 22.75 17.3452 21.5647 19.455 19.455C21.5647 17.3452 22.75 14.4837 22.75 11.5C22.75 10.0226 22.459 8.55972 21.8936 7.19481C21.3283 5.8299 20.4996 4.58971 19.455 3.54505C18.4103 2.50039 17.1701 1.67172 15.8052 1.10636C14.4403 0.54099 12.9774 0.25 11.5 0.25Z" fill="white"/>
</svg>
